<svg width="177" height="52" viewBox="0 0 177 52" fill="none" xmlns="http://www.w3.org/2000/svg">
<g clip-path="url(#clip0_154_4815)">
<path d="M167.927 27.7139H158.418L157.51 30.0311L156.634 24.9347L154.611 13.3558L154.465 13.281L151.439 22.3186L149.625 27.7003L140.896 29.1273H150.689L152.735 22.9641L154.072 18.9074L154.976 24.0785L157.023 35.9225L159.24 29.1273H167.9C167.941 28.6313 167.934 28.1081 167.927 27.7139Z" fill="#ED1C24"/>
<path d="M176.946 26.8747C176.651 23.2942 175.217 19.9008 172.853 17.1882C172.818 17.148 172.773 17.1179 172.723 17.1014C172.673 17.0848 172.619 17.0823 172.567 17.0943C172.515 17.1062 172.468 17.132 172.43 17.169C172.392 17.2059 172.365 17.2525 172.351 17.3037C172.279 17.6068 172.324 17.9258 172.478 18.1973C173.225 19.6068 173.867 21.0695 174.398 22.5734C175.377 26.4534 173.903 27.4931 173.375 27.9857C173.354 28.0078 173.326 28.022 173.295 28.0259C173.265 28.0298 173.234 28.0233 173.208 28.0074C173.182 27.9914 173.163 27.9671 173.153 27.9384C173.142 27.9097 173.143 27.8785 173.153 27.8498C173.446 26.8815 174.084 24.7512 173.528 23.8373C173.517 23.8205 173.502 23.8066 173.485 23.797C173.467 23.7874 173.448 23.7824 173.427 23.7824C173.407 23.7824 173.388 23.7874 173.37 23.797C173.352 23.8066 173.338 23.8205 173.327 23.8373C171.877 26.1578 170.076 30.167 171.768 32.671C172.846 34.2543 172.109 35.756 170.936 37.0505C170.479 37.5567 169.943 38.1445 169.398 38.6881C162.412 45.2353 151.566 47.6 142.947 42.9351C138.163 40.3394 134.548 36.0308 132.832 30.8808C131.116 25.7307 131.427 20.1237 133.704 15.1938C133.255 15.851 132.842 16.5315 132.465 17.2324C130.805 20.2741 129.839 23.6432 129.635 27.0995C129.432 30.5559 129.996 34.0144 131.288 37.2286C132.58 40.4428 134.568 43.3336 137.11 45.6949C139.652 48.0563 142.685 49.83 145.994 50.8898C149.303 51.9496 152.806 52.2694 156.253 51.8262C159.7 51.3831 163.007 50.188 165.937 48.3262C168.868 46.4643 171.35 43.9815 173.206 41.0547C175.063 38.1279 176.249 34.8291 176.68 31.3935C176.981 29.9072 177.07 28.3858 176.942 26.8747" fill="#EB2127"/>
<path d="M161.092 32.0392C161.064 33.5765 160.488 35.0537 159.469 36.208C158.384 37.5308 156.559 38.1922 153.994 38.1922C151.357 38.1922 149.012 37.2296 146.961 35.3043C145.665 34.0812 144.597 32.3926 143.755 30.2385H140.894V40.0915H142.517C142.639 39.5938 142.836 39.1173 143.1 38.6781C143.322 38.3383 143.725 38.1854 144.315 38.1854C144.52 38.189 144.724 38.2106 144.925 38.25C145.157 38.2975 145.406 38.3587 145.662 38.4233L146.767 38.831C147.89 39.2531 149.05 39.5715 150.232 39.7823C151.374 39.9852 152.531 40.0887 153.691 40.0915C158.652 40.0915 162.263 38.823 164.524 36.2862C166.222 34.3631 167.281 32.345 167.699 30.2317H160.843C161.015 30.8163 161.099 31.4232 161.092 32.0324" fill="#102B4E"/>
<path d="M167.812 26.613C167.519 24.2527 166.438 22.0591 164.742 20.3853C163.419 19.1 161.889 18.0446 160.216 17.2629L156.027 15.1802C156.71 19.033 157.914 25.9913 158.016 26.6096L167.812 26.613Z" fill="#102B4E"/>
<path d="M149.12 11.1644C148.074 10.2742 147.551 8.93101 147.551 7.13482C147.545 6.41914 147.689 5.71011 147.976 5.05388C148.263 4.39766 148.685 3.80896 149.216 3.32613C150.321 2.2842 151.824 1.76211 153.725 1.75984C155.039 1.74541 156.34 2.01847 157.536 2.55974C158.733 3.10102 159.795 3.89732 160.649 4.89242C162.563 7.02431 163.925 9.59049 164.615 12.3671H166.208V-0.000102979H164.503C164.395 0.490308 164.2 0.957495 163.926 1.37932C163.691 1.71907 163.244 1.90254 162.634 1.90254C162.357 1.90254 161.269 1.58997 159.312 0.95122C157.365 0.313254 155.327 -0.00797266 153.278 -0.000102979C149.21 -0.000102979 146.186 1.19924 144.205 3.59794C142.237 6.00003 141.241 8.59238 141.241 11.3614C141.241 13.964 141.988 16.152 143.482 17.9255C144.831 19.5269 147.048 21.1419 150.133 22.7705C151.201 19.5971 152.599 15.4181 153.182 13.7159C151.2 12.6536 149.846 11.8031 149.12 11.1644Z" fill="#102B4E"/>
<path d="M7.08082 39.9792C6.83231 39.9769 6.58499 39.9449 6.34409 39.8841C6.0568 39.8069 5.79165 39.6638 5.56983 39.4662C5.27874 39.1947 5.05862 38.8564 4.9286 38.4809L4.64892 37.8014H1.50416L0.566193 39.9351H0L3.34258 32.3279H3.78258L6.36114 38.4809C6.47789 38.7937 6.6526 39.0818 6.87617 39.3303C7.06753 39.5218 7.31927 39.6418 7.58903 39.6701V39.9317C7.51069 39.9517 7.43084 39.9654 7.35027 39.9724C7.26057 39.9788 7.17052 39.9788 7.08082 39.9724M1.72245 37.3087H4.43404L3.11406 34.1626L1.72245 37.3087Z" fill="#102B4E"/>
<path d="M8.42079 39.9351V33.7821C8.43094 33.5 8.38216 33.2189 8.27753 32.9565C8.2147 32.8391 8.11731 32.7435 7.99842 32.6828C7.87954 32.6221 7.74485 32.599 7.61243 32.6167H7.43848V32.3178H8.68683C8.90474 32.3069 9.12185 32.3513 9.31783 32.4469C9.39761 32.4941 9.4669 32.557 9.52144 32.6317C9.57598 32.7065 9.61463 32.7916 9.63503 32.8818C9.70724 33.1728 9.73937 33.4723 9.73053 33.7719V39.4289H13.7655V39.9249L8.42079 39.9351Z" fill="#102B4E"/>
<path d="M16.7845 36.3982H13.6738V37.3767H16.7845V36.3982Z" fill="#102B4E"/>
<path d="M20.7069 40.132C20.393 40.131 20.0799 40.0991 19.7723 40.0369C19.4777 39.9807 19.1913 39.8882 18.9196 39.7617C18.6875 39.6567 18.4797 39.5052 18.3091 39.3166C18.1596 39.1585 18.0766 38.9494 18.0772 38.7322V37.4309H18.3568C18.4036 38.0662 18.6686 38.6661 19.1072 39.1297C19.5367 39.4875 20.0864 39.6697 20.6455 39.6394C20.906 39.6434 21.1649 39.5996 21.4095 39.5103C21.6203 39.4378 21.8044 39.3041 21.9382 39.1263C22.0679 38.9427 22.1349 38.7223 22.1292 38.4978C22.1356 38.1882 22.0206 37.8884 21.8086 37.662C21.5405 37.3976 21.2389 37.1692 20.9115 36.9824L19.4892 36.1398C19.0667 35.9089 18.7009 35.5875 18.4182 35.1987C18.2 34.871 18.0881 34.4843 18.0976 34.0911C18.0885 33.8143 18.1456 33.5393 18.2642 33.2888C18.3828 33.0384 18.5595 32.8196 18.7798 32.6505C19.2958 32.2754 19.9256 32.0883 20.5636 32.1205C20.8695 32.1204 21.1746 32.1511 21.4743 32.2122C21.7607 32.2689 22.039 32.3601 22.3031 32.484C22.5297 32.5874 22.7336 32.734 22.9034 32.9155C23.0498 33.0765 23.1301 33.2862 23.1285 33.5033V34.808H22.8523C22.8006 34.1746 22.5376 33.5766 22.1053 33.1092C21.6929 32.756 21.1573 32.579 20.6148 32.6166C20.3802 32.6158 20.148 32.6632 19.9326 32.7559C19.7348 32.8367 19.5643 32.9723 19.4415 33.1466C19.305 33.3644 19.2462 33.6218 19.2747 33.877C19.3032 34.1323 19.4172 34.3705 19.5984 34.5532C19.8754 34.8017 20.1798 35.0183 20.5056 35.1987L21.9279 36.0379C22.3495 36.2685 22.7298 36.567 23.0535 36.9213C23.2972 37.2228 23.4243 37.6013 23.4116 37.9881C23.4238 38.2865 23.3657 38.5836 23.2419 38.8556C23.1181 39.1276 22.9321 39.3669 22.6988 39.5544C22.1241 39.9699 21.4225 40.174 20.7137 40.132" fill="#102B4E"/>
<path d="M31.1101 39.9792C30.8616 39.9769 30.6143 39.9449 30.3734 39.8841C30.0861 39.8069 29.8209 39.6638 29.5991 39.4662C29.307 39.1956 29.0867 38.8571 28.9579 38.4809L28.6782 37.8014H25.5335L24.5955 39.9351H24.0293L27.3719 32.3279H27.8119L30.3904 38.4809C30.5059 38.7943 30.6808 39.0826 30.9055 39.3303C31.0968 39.5218 31.3486 39.6418 31.6183 39.6701V39.9317C31.54 39.9517 31.4601 39.9654 31.3796 39.9724C31.2899 39.9788 31.1998 39.9788 31.1101 39.9724M25.7518 37.3087H28.4463L27.1297 34.1626L25.7518 37.3087Z" fill="#102B4E"/>
<path d="M32.4505 39.9351V33.7821C32.4607 33.5 32.4119 33.2188 32.3073 32.9565C32.2401 32.8401 32.1386 32.747 32.0166 32.6899C31.8946 32.6328 31.758 32.6144 31.6251 32.6371H31.4512V32.3381H36.4957C36.7087 32.325 36.9212 32.3709 37.1097 32.4706C37.2419 32.5482 37.3441 32.6679 37.3996 32.8104C37.4531 32.9527 37.4797 33.1036 37.4781 33.2555V34.1864H37.1779C37.1927 33.9996 37.1669 33.8119 37.1021 33.6359C37.0374 33.46 36.9352 33.3001 36.8027 33.1671C36.4989 32.9283 36.1183 32.8075 35.7317 32.8274H33.7671V35.7561H36.8368V36.2521H33.7671V39.4425H35.7692C36.1703 39.458 36.5676 39.3602 36.9153 39.1605C37.2647 38.9079 37.524 38.5508 37.6554 38.1412L37.9317 38.2329L37.5633 39.2148C37.5069 39.4138 37.3986 39.5943 37.2495 39.7381C37.0691 39.8777 36.843 39.9455 36.6151 39.9283L32.4505 39.9351Z" fill="#102B4E"/>
<path d="M39.3465 39.9351V33.782C39.357 33.4963 39.3071 33.2115 39.1999 32.9462C39.1044 32.7356 38.8827 32.6269 38.5177 32.6269H38.3438V32.3279H41.4442C43.0086 32.3279 44.1819 32.6676 44.9641 33.3472C45.3524 33.6894 45.6587 34.1139 45.8606 34.5896C46.0625 35.0652 46.1547 35.5799 46.1306 36.0958C46.1442 36.7938 45.9724 37.483 45.6326 38.0936C45.2895 38.6836 44.7761 39.1571 44.1592 39.4526C43.4046 39.8006 42.5788 39.9681 41.7477 39.9419L39.3465 39.9351ZM41.7341 39.4968C42.2577 39.5055 42.7727 39.364 43.2178 39.0891C43.6594 38.8011 44.0134 38.3981 44.241 37.9237C44.5029 37.3636 44.6313 36.7508 44.6162 36.1332C44.631 35.5225 44.5037 34.9166 44.2444 34.363C44.0203 33.8836 43.6658 33.4764 43.2212 33.1875C42.7714 32.902 42.2469 32.7555 41.7136 32.7662C41.553 32.7651 41.3924 32.773 41.2327 32.79C41.0432 32.8123 40.8552 32.8463 40.6699 32.8919V39.3915L41.0929 39.4628C41.2054 39.4628 41.3111 39.4866 41.4101 39.49H41.7511" fill="#102B4E"/>
<path d="M49.4567 39.935V36.8466L47.4341 33.8261C47.2981 33.6161 47.1452 33.4172 46.9771 33.2316C46.8198 33.0595 46.6436 32.9057 46.4518 32.7729C46.2704 32.6475 46.0582 32.5736 45.8379 32.5588V32.3278H47.018C47.286 32.3241 47.5504 32.3897 47.7855 32.5181C48.0125 32.6426 48.2166 32.8045 48.3892 32.9971C48.5564 33.1814 48.705 33.3817 48.8326 33.5951L50.4527 36.0515L52.7686 32.3142H53.4269L50.7665 36.6257V39.9214L49.4567 39.935Z" fill="#102B4E"/>
<path d="M57.8436 39.9351V33.782C57.8552 33.4965 57.8064 33.2118 57.7004 32.9462C57.6049 32.7356 57.3832 32.6269 57.0353 32.6269H56.8613V32.3279H59.9754C60.2101 32.3294 60.4447 32.343 60.678 32.3687C60.9501 32.3973 61.2186 32.4531 61.4795 32.5351C61.7485 32.6212 62.0018 32.7497 62.2299 32.9157C62.4691 33.0935 62.6611 33.3267 62.7893 33.5952C62.9432 33.9245 63.0168 34.2854 63.0042 34.6484C63.0159 34.9888 62.9445 35.3269 62.7961 35.6337C62.6678 35.8858 62.4821 36.1045 62.2538 36.2725C62.04 36.4291 61.8045 36.5539 61.5546 36.6428C61.3336 36.7215 61.105 36.7773 60.8724 36.8093C60.6938 36.8336 60.5138 36.8472 60.3335 36.8501H59.167V39.9385L57.8436 39.9351ZM59.1534 36.4084H59.9174C60.1091 36.406 60.2997 36.3774 60.4836 36.3234C60.6824 36.2611 60.866 36.1581 61.0225 36.0211C61.1968 35.8657 61.3333 35.6728 61.4216 35.4571C61.5289 35.1799 61.5799 34.8842 61.5716 34.5873C61.5804 34.287 61.5294 33.9879 61.4216 33.7073C61.3333 33.4925 61.1968 33.3007 61.0225 33.1467C60.8674 33.0154 60.6877 32.9161 60.4938 32.8545C60.3186 32.7976 60.1358 32.7679 59.9515 32.7662C59.8295 32.7664 59.7076 32.7743 59.5866 32.79C59.4501 32.79 59.3069 32.8273 59.1534 32.8579V36.4084Z" fill="#102B4E"/>
<path d="M67.4351 40.1661C66.7428 40.1809 66.0613 39.9944 65.4739 39.6293C64.917 39.2741 64.4686 38.7735 64.1778 38.182C63.8767 37.54 63.7207 36.8401 63.7207 36.1315C63.7207 35.423 63.8767 34.723 64.1778 34.0811C64.4686 33.4895 64.917 32.9889 65.4739 32.6337C66.0685 32.2823 66.7471 32.0969 67.4385 32.0969C68.1299 32.0969 68.8085 32.2823 69.4031 32.6337C69.9583 32.9909 70.4061 33.491 70.6992 34.0811C71.0025 34.7224 71.1598 35.4226 71.1598 36.1315C71.1598 36.8404 71.0025 37.5406 70.6992 38.182C70.4061 38.772 69.9583 39.2722 69.4031 39.6293C68.8139 39.996 68.1297 40.1827 67.4351 40.1661ZM67.4351 39.6701C67.8896 39.684 68.3339 39.5344 68.6868 39.2488C69.0545 38.9226 69.3248 38.5017 69.4679 38.0325C69.8271 36.7881 69.8271 35.4681 69.4679 34.2238C69.323 33.7572 69.0529 33.339 68.6868 33.0142C68.3302 32.7431 67.894 32.5962 67.4453 32.5962C66.9966 32.5962 66.5604 32.7431 66.2038 33.0142C65.8323 33.3357 65.5592 33.7549 65.4159 34.2238C65.0566 35.4681 65.0566 36.7881 65.4159 38.0325C65.5574 38.5041 65.8307 38.926 66.2038 39.2488C66.5506 39.5311 66.9873 39.6806 67.4351 39.6701Z" fill="#102B4E"/>
<path d="M72.7118 39.935V33.7819C72.7234 33.4964 72.6746 33.2117 72.5685 32.9461C72.5024 32.8328 72.4037 32.7417 72.2852 32.6848C72.1666 32.6279 72.0337 32.6077 71.9034 32.6268H71.7295V32.3278H72.9915C73.2094 32.3169 73.4265 32.3614 73.6225 32.4569C73.7023 32.5041 73.7716 32.567 73.8261 32.6418C73.8806 32.7165 73.9193 32.8016 73.9397 32.8918C74.0105 33.183 74.0414 33.4824 74.0318 33.7819V39.4389H78.0702V39.935H72.7118Z" fill="#102B4E"/>
<path d="M79.9528 39.935V36.8466L77.9302 33.8261C77.793 33.6168 77.6403 33.4181 77.4732 33.2316C77.3155 33.0587 77.1381 32.9047 76.9445 32.7729C76.7645 32.6472 76.5533 32.5732 76.334 32.5588V32.3278H77.5141C77.7821 32.3246 78.0464 32.3901 78.2815 32.5181C78.5086 32.6426 78.7127 32.8045 78.8853 32.9971C79.0515 33.1822 79.1999 33.3824 79.3287 33.5951L80.9488 36.0515L83.2613 32.3142H83.923L81.2626 36.6257V39.9214L79.9528 39.935Z" fill="#102B4E"/>
<path d="M87.7293 40.1661C87.0238 40.186 86.3271 40.0057 85.7204 39.6463C85.1681 39.3071 84.7244 38.8179 84.4413 38.2363C84.1431 37.6163 83.9925 36.9362 84.0013 36.2487C83.9975 35.693 84.0922 35.1409 84.281 34.6179C84.4546 34.1296 84.7235 33.6804 85.0723 33.2962C85.4064 32.927 85.8111 32.6278 86.2627 32.4163C86.7217 32.2026 87.2227 32.0935 87.7293 32.0969C88.3105 32.08 88.8895 32.1746 89.4347 32.3755C89.815 32.5127 90.1574 32.7374 90.4341 33.0312C90.5924 33.2506 90.6815 33.512 90.6899 33.7821C90.7138 34.0947 90.724 34.4276 90.724 34.7708H90.4239C90.3311 34.1574 90.0499 33.5877 89.6189 33.1399C89.1958 32.7629 88.6409 32.5665 88.0738 32.5929C87.6083 32.5891 87.1498 32.7062 86.7436 32.9327C86.309 33.1942 85.9723 33.5904 85.7852 34.0607C85.5225 34.7603 85.4064 35.5061 85.4441 36.2521C85.4419 36.6791 85.4923 37.1047 85.5942 37.5194C85.687 37.9098 85.845 38.2819 86.0615 38.6202C86.2669 38.939 86.5465 39.2036 86.8766 39.3915C87.2499 39.589 87.6684 39.6862 88.0909 39.6735C88.6162 39.6809 89.1321 39.5344 89.5746 39.2522C90.0374 38.945 90.4151 38.5267 90.6729 38.0359L91.0139 38.2907C90.7213 38.8939 90.2561 39.3975 89.6769 39.738C89.0821 40.04 88.4206 40.1884 87.7532 40.1695" fill="#102B4E"/>
<path d="M92.4842 39.935V33.7819C92.4961 33.4961 92.4461 33.211 92.3376 32.9461C92.2421 32.7355 92.0204 32.6268 91.6554 32.6268H91.4814V32.3278H92.7332C92.9511 32.3169 93.1682 32.3614 93.3642 32.4569C93.444 32.5041 93.5133 32.567 93.5678 32.6418C93.6224 32.7165 93.661 32.8016 93.6814 32.8918C93.7522 33.183 93.7832 33.4824 93.7735 33.7819V39.4389H97.8119V39.935H92.4842Z" fill="#102B4E"/>
<path d="M99.7144 39.9351C99.4971 39.9464 99.2805 39.9044 99.0834 39.8128C99.0026 39.7655 98.9324 39.7023 98.8773 39.6269C98.8221 39.5514 98.7831 39.4655 98.7627 39.3745C98.692 39.0821 98.661 38.7815 98.6707 38.4809V32.3279H99.9906V38.4809C99.9791 38.7664 100.028 39.0512 100.134 39.3167C100.233 39.5308 100.455 39.6361 100.799 39.6361H100.959V39.9351H99.7144Z" fill="#102B4E"/>
<path d="M107.781 40.0029L102.853 34.0911V39.935H102.324V33.7106C102.335 33.4354 102.26 33.1635 102.109 32.9326C102.01 32.8189 101.884 32.7308 101.744 32.6758C101.603 32.6208 101.451 32.6005 101.301 32.6166H101.219V32.3176H101.983C102.333 32.3037 102.682 32.3651 103.006 32.4977C103.261 32.6148 103.484 32.7907 103.657 33.0107L107.672 37.7673V32.3278H108.204V40.0029H107.781Z" fill="#102B4E"/>
<path d="M111.11 39.9351C110.893 39.9464 110.676 39.9044 110.479 39.8128C110.398 39.7655 110.328 39.7023 110.273 39.6269C110.218 39.5514 110.179 39.4655 110.158 39.3745C110.088 39.0821 110.057 38.7815 110.066 38.4809V32.3279H111.386V38.4809C111.375 38.7664 111.423 39.0512 111.529 39.3167C111.628 39.5308 111.85 39.6361 112.195 39.6361H112.358V39.9351H111.11Z" fill="#102B4E"/>
<path d="M116.65 40.1661C115.945 40.1854 115.25 40.0052 114.644 39.6462C114.092 39.307 113.648 38.8178 113.365 38.2362C113.067 37.6162 112.916 36.9361 112.925 36.2486C112.92 35.6931 113.014 35.141 113.201 34.6178C113.378 34.13 113.647 33.681 113.996 33.2961C114.33 32.9261 114.734 32.6268 115.187 32.4162C115.644 32.203 116.144 32.0939 116.65 32.0968C117.231 32.0804 117.81 32.1749 118.355 32.3754C118.735 32.5127 119.078 32.7373 119.355 33.0311C119.513 33.2505 119.602 33.5119 119.61 33.782C119.631 34.0946 119.644 34.4275 119.644 34.7707H119.344C119.251 34.1573 118.97 33.5876 118.539 33.1399C118.115 32.762 117.559 32.5655 116.991 32.5928C116.525 32.5887 116.067 32.7058 115.661 32.9326C115.224 33.193 114.886 33.5894 114.699 34.0606C114.43 34.759 114.308 35.5049 114.341 36.252C114.34 36.6789 114.391 37.1043 114.491 37.5193C114.586 37.9094 114.745 38.2813 114.961 38.6202C115.167 38.9389 115.446 39.2035 115.777 39.3914C116.15 39.5889 116.568 39.6861 116.991 39.6734C117.515 39.6808 118.03 39.5342 118.471 39.2521C118.935 38.946 119.313 38.5274 119.569 38.0358L119.91 38.2906C119.616 38.8927 119.151 39.3958 118.573 39.738C117.977 40.0402 117.315 40.1886 116.646 40.1695" fill="#102B4E"/>
<path d="M5.91064 23.6437C2.02233 23.6437 0.078174 22.1126 0.078174 19.0502C0.0753995 18.2686 0.190372 17.4909 0.419254 16.7433L3.01828 16.3321C2.6855 17.1129 2.5194 17.9541 2.53054 18.8022C2.53054 19.8215 2.79658 20.5859 3.33549 21.0378C3.87439 21.4897 4.83965 21.7445 6.15622 21.7445H7.02256V16.519C8.10654 16.3162 9.20767 16.2184 10.3106 16.2268C11.634 16.2268 12.5856 16.536 13.1654 17.1476C13.6702 17.6912 13.926 18.5236 13.926 19.6414V21.8023H11.5964V19.8724C11.5964 19.2133 11.4975 18.758 11.3031 18.5134C11.1087 18.2688 10.7267 18.1329 10.1741 18.1329C9.90291 18.132 9.63221 18.157 9.36578 18.2076V23.6437H5.91064ZM4.8874 26.7797C4.78011 26.8884 4.65217 26.9747 4.51104 27.0336C4.36991 27.0926 4.21842 27.1229 4.0654 27.1229C3.91237 27.1229 3.76088 27.0926 3.61975 27.0336C3.47863 26.9747 3.35069 26.8884 3.2434 26.7797C3.03047 26.5531 2.912 26.2543 2.912 25.9439C2.912 25.6335 3.03047 25.3347 3.2434 25.1081C3.35069 24.9994 3.47863 24.9131 3.61975 24.8542C3.76088 24.7952 3.91237 24.7649 4.0654 24.7649C4.21842 24.7649 4.36991 24.7952 4.51104 24.8542C4.65217 24.9131 4.78011 24.9994 4.8874 25.1081C5.10033 25.3347 5.2188 25.6335 5.2188 25.9439C5.2188 26.2543 5.10033 26.5531 4.8874 26.7797ZM7.61604 26.7797C7.51042 26.8894 7.38319 26.9762 7.24234 27.0347C7.10148 27.0931 6.95002 27.122 6.79745 27.1195C6.64362 27.1238 6.4906 27.0958 6.34838 27.0372C6.20616 26.9787 6.07792 26.8909 5.97203 26.7797C5.7591 26.5531 5.64064 26.2543 5.64064 25.9439C5.64064 25.6335 5.7591 25.3347 5.97203 25.1081C6.07933 24.9994 6.20726 24.9131 6.34839 24.8542C6.48952 24.7952 6.64101 24.7649 6.79404 24.7649C6.94706 24.7649 7.09855 24.7952 7.23968 24.8542C7.38081 24.9131 7.50875 24.9994 7.61604 25.1081C7.83281 25.3328 7.95389 25.6323 7.95389 25.9439C7.95389 26.2555 7.83281 26.555 7.61604 26.7797Z" fill="#102B4E"/>
<path d="M15.4883 21.7445H19.8064C19.6813 19.7581 18.5296 18.5213 16.3512 18.0344L16.914 16.0298C20.1906 16.7999 21.9426 18.7048 22.17 21.7445H23.0466V23.6472H15.4883V21.7445Z" fill="#102B4E"/>
<path d="M26.597 21.741H22.7871V23.6402H26.597V21.741Z" fill="#102B4E"/>
<path d="M26.4541 21.7443H28.3914C28.0895 21.5121 27.8499 21.2091 27.6939 20.8623C27.538 20.5155 27.4706 20.1357 27.4978 19.7567C27.4811 19.295 27.5638 18.8352 27.7403 18.4079C27.9168 17.9807 28.183 17.5961 28.521 17.2799C29.2714 16.58 30.3185 16.23 31.6624 16.23C32.2928 16.2242 32.9205 16.3123 33.5247 16.4916L33.0949 18.4079C32.6367 18.2149 32.1426 18.1211 31.6453 18.1327C31.4201 18.1237 31.1953 18.1593 30.9839 18.2375C30.7726 18.3156 30.5789 18.4347 30.414 18.5879C30.2572 18.7416 30.134 18.926 30.0524 19.1295C29.9708 19.3331 29.9325 19.5513 29.9399 19.7703C29.9328 20.0514 29.9988 20.3297 30.1314 20.5779C30.2641 20.8262 30.459 21.036 30.6971 21.1871C31.2451 21.5586 32.041 21.7443 33.0847 21.7443H34.2341V23.6469H26.4541V21.7443Z" fill="#102B4E"/>
<path d="M35.8613 12.8359H38.2932V21.741H39.736V23.6436H35.8613V12.8359Z" fill="#102B4E"/>
<path d="M43.3206 21.741H39.5107V23.6402H43.3206V21.741Z" fill="#102B4E"/>
<path d="M43.1777 21.7443H45.1458V16.4373H47.5811V16.6683C47.5886 17.3268 47.5245 17.984 47.3901 18.6287H47.4105C47.7184 17.8905 48.2518 17.2676 48.9352 16.8484C49.5781 16.4375 50.327 16.2215 51.0908 16.2267C52.1959 16.2267 53.0418 16.5392 53.6216 17.161C54.2014 17.7827 54.4572 18.6152 54.4572 19.7058C54.4782 20.4163 54.3099 21.1196 53.9695 21.7443H55.2758V23.647H43.1777V21.7443ZM49.9311 21.7443C51.2818 21.7217 51.9571 21.0886 51.9571 19.8451C51.9571 18.7239 51.5035 18.1463 50.5928 18.1463C49.9107 18.1463 49.2762 18.4985 48.6896 19.2029C48.0949 19.9372 47.7023 20.8131 47.5504 21.7443H49.9311Z" fill="#102B4E"/>
<path d="M54.9414 21.741H56.6911V12.8394H59.1401V23.6437H54.9414V21.741Z" fill="#102B4E"/>
<path d="M63.9627 12.8394H61.5273V23.6437H63.9627V12.8394Z" fill="#102B4E"/>
<path d="M69.5803 26.7185C69.2597 26.5111 68.9974 26.2257 68.8184 25.8892C68.6393 25.5527 68.5494 25.1763 68.5571 24.7955C68.558 24.3827 68.6541 23.9755 68.838 23.6056C69.022 23.2356 69.2888 22.9127 69.6179 22.6618C70.3126 22.1452 71.073 21.7225 71.8792 21.4047C70.7014 20.3356 69.7475 19.707 69.0176 19.519L69.2188 17.7897C70.7559 16.7206 72.2339 16.1849 73.6528 16.1826C74.7898 16.1826 75.6641 16.4397 76.2757 16.9539C76.5399 17.176 76.75 17.4551 76.89 17.77C77.03 18.0849 77.0964 18.4274 77.0841 18.7716C77.0841 19.8158 76.5907 20.7218 75.6038 21.4896C76.0715 21.6691 76.5693 21.7579 77.0705 21.7513H78.1312V23.6539H76.8078C75.6186 23.671 74.4505 23.3403 73.4482 22.7026C72.8732 22.96 72.3119 23.2469 71.7667 23.5622C71.2823 23.8815 71.0367 24.2145 71.0367 24.5577C71.0367 25.2802 71.7814 25.6426 73.2708 25.6449C74.0227 25.6479 74.7734 25.5877 75.5151 25.4648L75.6516 27.2825C74.7747 27.4483 73.8836 27.5279 72.9911 27.5203C71.4881 27.5203 70.3512 27.2485 69.5803 26.7049M73.8541 20.3956C74.0894 20.2578 74.2867 20.064 74.4284 19.8315C74.57 19.5991 74.6516 19.3353 74.6658 19.0638C74.6658 18.3072 74.2349 17.929 73.3731 17.929C72.6783 17.9841 72.0129 18.2325 71.4529 18.6459C72.2911 19.1695 73.0891 19.7544 73.8404 20.3956" fill="#102B4E"/>
<path d="M81.6985 21.741H77.8887V23.6402H81.6985V21.741Z" fill="#102B4E"/>
<path d="M87.3782 23.6437C85.7865 23.6437 84.6644 23.304 84.0118 22.6245C83.6502 23.304 82.8112 23.6437 81.4878 23.6437H81.2559V21.7445C82.4121 21.7445 82.992 21.1431 82.992 19.9336C82.9785 19.4582 83.0622 18.985 83.2382 18.5428C83.4141 18.1007 83.6784 17.6988 84.0152 17.3616C84.761 16.6074 85.7843 16.2302 87.0849 16.2302C88.306 16.2302 89.2269 16.57 89.8408 17.2257C90.4548 17.8814 90.6833 18.6969 90.6833 19.8011V21.7445H91.8259V23.6471L87.3782 23.6437ZM88.3162 20.0457C88.3162 18.7592 87.8558 18.1159 86.9348 18.1159C86.7181 18.1069 86.5022 18.148 86.304 18.2358C86.1059 18.3236 85.9307 18.4558 85.7922 18.6221C85.5157 18.9791 85.3743 19.4219 85.3932 19.8724C85.3932 21.1092 86.0549 21.7275 87.3782 21.7275H88.3162V20.0457Z" fill="#102B4E"/>
<path d="M95.3929 21.741H91.583V23.6402H95.3929V21.741Z" fill="#102B4E"/>
<path d="M99.0599 21.741H95.25V23.6402H99.0599V21.741Z" fill="#102B4E"/>
<path d="M98.9131 21.7443H104.609C104.643 21.4442 104.659 21.1425 104.657 20.8406C104.657 19.1055 103.733 18.2369 101.884 18.2346C101.283 18.2311 100.683 18.2765 100.09 18.3705V16.4883C100.766 16.3785 101.451 16.3262 102.136 16.332C103.858 16.332 105.12 16.7057 105.922 17.4532C106.686 18.1735 107.068 19.2811 107.068 20.776C107.068 20.9731 107.068 21.2924 107.041 21.7409H108.105V23.6436H98.9131V21.7443ZM101.707 26.7965C101.595 26.6842 101.508 26.5509 101.45 26.4044C101.391 26.258 101.362 26.1013 101.365 25.9437C101.369 25.7092 101.442 25.4809 101.574 25.2868C101.706 25.0928 101.892 24.9415 102.11 24.8516C102.327 24.7617 102.567 24.7371 102.798 24.7808C103.029 24.8246 103.243 24.9347 103.412 25.0977C103.525 25.2089 103.614 25.3412 103.675 25.487C103.736 25.6328 103.767 25.7892 103.767 25.9471C103.767 26.1051 103.736 26.2615 103.675 26.4072C103.614 26.553 103.525 26.6853 103.412 26.7965C103.299 26.9085 103.164 26.9963 103.016 27.0547C102.867 27.1131 102.708 27.1409 102.549 27.1363C102.392 27.1398 102.235 27.1115 102.089 27.0531C101.943 26.9947 101.811 26.9074 101.7 26.7965" fill="#102B4E"/>
<path d="M111.659 21.741H107.85V23.6402H111.659V21.741Z" fill="#102B4E"/>
<path d="M111.513 23.6437V21.7445H112.174C112.458 21.7341 112.741 21.7755 113.01 21.8668C112.555 21.484 112.328 20.8396 112.328 19.9336C112.314 19.4581 112.398 18.9849 112.574 18.5427C112.75 18.1005 113.014 17.6987 113.351 17.3616C114.101 16.6074 115.125 16.2302 116.421 16.2302C117.645 16.2302 118.563 16.57 119.18 17.2257C119.746 17.8407 120.029 18.6969 120.029 19.8011V23.6437H111.513ZM117.652 20.0593C117.652 18.7727 117.191 18.1295 116.267 18.1295C116.051 18.1205 115.836 18.1616 115.638 18.2494C115.44 18.3372 115.266 18.4695 115.128 18.6357C114.852 18.9927 114.71 19.4355 114.729 19.886C114.729 21.1227 115.39 21.7411 116.711 21.7411H117.652V20.0593Z" fill="#102B4E"/>
</g>
<defs>
<clipPath id="clip0_154_4815">
<rect width="177" height="52" fill="white"/>
</clipPath>
</defs>
</svg>
